<?xml version="1.0"?>
<svg xmlns="http://www.w3.org/2000/svg" height="512px" viewBox="0 0 64 64" width="512px" class=""><g><g fill="#bddbff"><path d="m40 3v2a2.006 2.006 0 0 1 -2 2h-12a2.006 2.006 0 0 1 -2-2v-2z" data-original="#BDDBFF" class="" style="fill:#DCD5FF" data-old_color="#BDDBFF"/><path d="m36 20a2.006 2.006 0 0 0 -2 2h-2v-2a4 4 0 0 1 4-4h17v4z" data-original="#BDDBFF" class="" style="fill:#DCD5FF" data-old_color="#BDDBFF"/><path d="m32 20v2h-2a2.006 2.006 0 0 0 -2-2h-17v-4h17a4 4 0 0 1 4 4z" data-original="#BDDBFF" class="" style="fill:#DCD5FF" data-old_color="#BDDBFF"/><path d="m34.59 46.59a1.955 1.955 0 0 0 -.59 1.41v-26a2.006 2.006 0 0 1 2-2h20v6h-1a1 1 0 0 0 -1 1v1a1 1 0 0 0 1 1 1 1 0 0 0 -1 1v1a1 1 0 0 0 1 1 1 1 0 0 0 -1 1v1a1 1 0 0 0 1 1 1 1 0 0 0 -1 1v1a1 1 0 0 0 1 1h1v8h-20a1.955 1.955 0 0 0 -1.41.59z" data-original="#BDDBFF" class="" style="fill:#DCD5FF" data-old_color="#BDDBFF"/><path d="m34 22v26h-4v-26h2z" data-original="#BDDBFF" class="" style="fill:#DCD5FF" data-old_color="#BDDBFF"/><path d="m30 22v26a2.015 2.015 0 0 0 -2-2h-20v-8h1a1 1 0 0 0 1-1v-1a1 1 0 0 0 -1-1 1 1 0 0 0 1-1v-1a1 1 0 0 0 -1-1 1 1 0 0 0 1-1v-1a1 1 0 0 0 -1-1 1 1 0 0 0 1-1v-1a1 1 0 0 0 -1-1h-1v-6h20a2.006 2.006 0 0 1 2 2z" data-original="#BDDBFF" class="" style="fill:#DCD5FF" data-old_color="#BDDBFF"/></g><path d="m61 27a2 2 0 0 0 -2-2h-2v-5a1 1 0 0 0 -1-1h-2v-3a1 1 0 0 0 -1-1h-2v-8a5.006 5.006 0 0 0 -5-5h-28a5.006 5.006 0 0 0 -5 5v8h-2a1 1 0 0 0 -1 1v3h-2a1 1 0 0 0 -1 1v5h-2a2 2 0 0 0 -2 2v1a1.978 1.978 0 0 0 .278 1 1.978 1.978 0 0 0 -.278 1v1a1.978 1.978 0 0 0 .278 1 1.978 1.978 0 0 0 -.278 1v1a1.978 1.978 0 0 0 .278 1 1.978 1.978 0 0 0 -.278 1v1a2 2 0 0 0 2 2h2v7a1 1 0 0 0 1 1h5v10a5.006 5.006 0 0 0 5 5h28a5.006 5.006 0 0 0 5-5v-10h5a1 1 0 0 0 1-1v-7h2a2 2 0 0 0 2-2v-1a1.978 1.978 0 0 0 -.278-1 1.978 1.978 0 0 0 .278-1v-1a1.978 1.978 0 0 0 -.278-1 1.978 1.978 0 0 0 .278-1v-1a1.978 1.978 0 0 0 -.278-1 1.978 1.978 0 0 0 .278-1zm-2 1h-4v-1h4zm0 3h-4v-1h4zm0 3h-4v-1h4zm-7-15h-16a3 3 0 0 0 -2.816 2h-.184v-1a3 3 0 0 1 3-3h16zm-21 4h2v24h-2zm-6-19h14v1a1 1 0 0 1 -1 1h-12a1 1 0 0 1 -1-1zm-10 3a3 3 0 0 1 3-3h5v1a3 3 0 0 0 3 3h12a3 3 0 0 0 3-3v-1h5a3 3 0 0 1 3 3v8h-13a4.982 4.982 0 0 0 -4 2.031 4.982 4.982 0 0 0 -4-2.031h-13zm-3 10h16a3 3 0 0 1 3 3v1h-.184a3 3 0 0 0 -2.816-2h-16zm-7 16h4v1h-4zm0-3h4v1h-4zm0-3h4v1h-4zm0 9h4v1h-4zm4 3a2 2 0 0 0 2-2v-1a1.978 1.978 0 0 0 -.278-1 1.978 1.978 0 0 0 .278-1v-1a1.978 1.978 0 0 0 -.278-1 1.978 1.978 0 0 0 .278-1v-1a1.978 1.978 0 0 0 -.278-1 1.978 1.978 0 0 0 .278-1v-1a2 2 0 0 0 -2-2v-4h19a1 1 0 0 1 1 1v23.182a2.992 2.992 0 0 0 -1-.182h-19zm40 18a3 3 0 0 1 -3 3h-28a3 3 0 0 1 -3-3v-10h13a.974.974 0 0 1 .712.306.957.957 0 0 1 .288.694 1 1 0 0 0 1 1h4a1 1 0 0 0 1-1 .974.974 0 0 1 .306-.712.957.957 0 0 1 .694-.288h13zm6-12h-19a3.012 3.012 0 0 0 -1 .181v-23.181a1 1 0 0 1 1-1h19v4a2 2 0 0 0 -2 2v1a1.978 1.978 0 0 0 .278 1 1.978 1.978 0 0 0 -.278 1v1a1.978 1.978 0 0 0 .278 1 1.978 1.978 0 0 0 -.278 1v1a1.978 1.978 0 0 0 .278 1 1.978 1.978 0 0 0 -.278 1v1a2 2 0 0 0 2 2zm0-8v-1h4v1z" fill="#3d9ae2" data-original="#3D9AE2" class="active-path" style="fill:#9F95DD" data-old_color="#3d9ae2"/></g> </svg>
