<svg id="Capa_1" enable-background="new 0 0 512 512" height="512" viewBox="0 0 512 512" width="512" xmlns="http://www.w3.org/2000/svg" xmlns:xlink="http://www.w3.org/1999/xlink"><linearGradient id="SVGID_1_" gradientUnits="userSpaceOnUse" x1="74.981" x2="437.02" y1="437.019" y2="74.98"><stop offset=".1" stop-color="#ff195e"/><stop offset="1" stop-color="#ffc5a3"/></linearGradient><radialGradient id="SVGID_2_" cx="256.001" cy="256" gradientUnits="userSpaceOnUse" r="256"><stop offset="0" stop-color="#ff195e"/><stop offset=".093" stop-color="#ff2466" stop-opacity=".907"/><stop offset=".2545" stop-color="#ff417a" stop-opacity=".746"/><stop offset=".4652" stop-color="#ff6f9a" stop-opacity=".535"/><stop offset=".717" stop-color="#ffafc7" stop-opacity=".283"/><stop offset="1" stop-color="#fff" stop-opacity="0"/></radialGradient><linearGradient id="SVGID_3_" gradientUnits="userSpaceOnUse" x1="-143.824" x2="488.696" y1="660.614" y2="28.094"><stop offset=".0056" stop-color="#ff6e70"/><stop offset=".1497" stop-color="#ff787b"/><stop offset=".3998" stop-color="#ff9197"/><stop offset=".7235" stop-color="#ffbbc5"/><stop offset="1" stop-color="#ffe3f1"/></linearGradient><linearGradient id="lg1"><stop offset="0" stop-color="#ffa9d4"/><stop offset=".0639" stop-color="#ffb0d8"/><stop offset=".4807" stop-color="#ffdbed"/><stop offset=".8068" stop-color="#fff5fa"/><stop offset="1" stop-color="#fff"/></linearGradient><linearGradient id="SVGID_4_" gradientUnits="userSpaceOnUse" x1="151.803" x2="517.043" xlink:href="#lg1" y1="480.881" y2="115.641"/><linearGradient id="SVGID_5_" gradientUnits="userSpaceOnUse" x1="115.9" x2="561.6" xlink:href="#lg1" y1="548.528" y2="102.827"/><radialGradient id="SVGID_6_" cx="349.228" cy="254.976" gradientUnits="userSpaceOnUse" r="100.049"><stop offset="0" stop-color="#ffe3f1"/><stop offset=".3998" stop-color="#fff0f7" stop-opacity=".6"/><stop offset="1" stop-color="#fff" stop-opacity="0"/></radialGradient><linearGradient id="SVGID_7_" gradientUnits="userSpaceOnUse" x1="7.332" x2="453.827" xlink:href="#lg1" y1="576.76" y2="130.264"/><linearGradient id="SVGID_8_" gradientUnits="userSpaceOnUse" x1="576.783" x2="309.485" xlink:href="#lg1" y1="482.389" y2="215.09"/><linearGradient id="SVGID_9_" gradientUnits="userSpaceOnUse" x1="-132.863" x2="401.858" xlink:href="#lg1" y1="619.89" y2="85.168"/><linearGradient id="SVGID_10_" gradientUnits="userSpaceOnUse" x1="-166.685" x2="283.662" xlink:href="#lg1" y1="565.767" y2="115.42"/><linearGradient id="SVGID_11_" gradientUnits="userSpaceOnUse" x1="258.082" x2="536.132" xlink:href="#lg1" y1="444.422" y2="166.372"/><linearGradient id="SVGID_12_" gradientUnits="userSpaceOnUse" x1="85.58" x2="314.308" xlink:href="#lg1" y1="439.463" y2="210.735"/><linearGradient id="SVGID_13_" gradientUnits="userSpaceOnUse" x1="113.404" x2="353.834" xlink:href="#lg1" y1="427.047" y2="186.617"/><radialGradient id="SVGID_14_" cx="340.777" cy="244.668" gradientUnits="userSpaceOnUse" r="161.815"><stop offset="0" stop-color="#ffe3f1"/><stop offset=".1143" stop-color="#ffe8f3" stop-opacity=".886"/><stop offset=".6222" stop-color="#fff9fc" stop-opacity=".378"/><stop offset="1" stop-color="#fff" stop-opacity="0"/></radialGradient><linearGradient id="SVGID_15_" gradientUnits="userSpaceOnUse" x1="554.129" x2="186.227" xlink:href="#lg1" y1="459.779" y2="91.877"/><g><circle cx="256" cy="256" fill="url(#SVGID_1_)" r="256"/><circle cx="256" cy="256" fill="url(#SVGID_2_)" r="256"/><path d="m423.346 116.95c-111.564-3.883-223.128-3.883-334.692 0-8.345.296-15.418 7.273-15.748 15.55-3.372 85.667-3.236 171.333.41 257 .357 8.277 7.435 15.272 15.758 15.59 39.036 1.461 78.072 2.409 117.108 2.845 2.978.033 5.9.959 8.394 2.665 4.636 3.169 9.262 6.334 13.877 9.493 8.201 5.613 17.768 8.622 27.547 8.621 9.78.001 19.346-3.008 27.547-8.621 4.615-3.159 9.241-6.323 13.877-9.493 2.495-1.705 5.416-2.631 8.394-2.665 39.036-.436 78.073-1.384 117.109-2.845 8.324-.317 15.4-7.312 15.758-15.59 3.645-85.667 3.782-171.333.41-257-.332-8.278-7.404-15.253-15.749-15.55z" fill="url(#SVGID_3_)"/><path d="m240.627 269.835c.01 29.797.054 59.594.132 89.391 5.096 6.084 10.178 12.163 15.241 18.237 50.969-10.25 102.254-21.187 153.734-32.29.235-10.076.431-20.152.586-30.228-56.317-14.368-112.979-29.72-169.693-45.11z" fill="url(#SVGID_4_)"/><path d="m287.682 315.92c40.88-.111 81.759-.436 122.638-.975.622-40.304.606-80.608-.048-120.912-40.212 39.737-81.583 80.805-122.59 121.887z" fill="url(#SVGID_5_)"/><path d="m287.682 315.92c40.88-.111 81.759-.436 122.638-.975.622-40.304.606-80.608-.048-120.912-40.212 39.737-81.583 80.805-122.59 121.887z" fill="url(#SVGID_6_)"/><path d="m379.919 224.064c-15.362-.087-30.724-.158-46.086-.213-8.483-.033-15.337 6.813-15.323 15.283.027 15.332.017 30.665-.029 45.997-.026 8.467-3.499 16.145-9.077 21.721 30.822-30.806 61.756-61.5 92.16-91.525-5.501 5.433-13.161 8.785-21.645 8.737z" fill="url(#SVGID_7_)"/><path d="m309.441 214.787c.111 30.688.098 61.375-.039 92.063 30.822-30.806 61.756-61.5 92.16-91.525-30.707-.263-61.414-.442-92.121-.538z" fill="url(#SVGID_8_)"/><path d="m399.5 85.935c-37.833-1.396-75.667-2.24-113.5-2.532-16.472-.131-29.975 13.724-30 30.634-20.162 36.217-40.842 72.56-61.444 108.739 20.343 41.171 41.082 82.594 61.444 123.936-.012-16.913 13.788-30.747 30.66-30.79.341-.001.682-.002 1.022-.003 8.466-.023 16.144-3.492 21.723-9.067 5.578-5.576 9.052-13.254 9.077-21.721.046-15.332.056-30.665.029-45.997-.013-8.47 6.84-15.316 15.323-15.283 15.362.055 30.724.126 46.086.213 8.483.047 16.144-3.304 21.646-8.737 5.503-5.435 8.843-12.949 8.707-21.295-.542-33.419-1.523-66.837-2.944-100.256-.18-4.169-3.69-7.687-7.829-7.841z" fill="url(#SVGID_9_)"/><path d="m226 83.403c-37.833.292-75.667 1.136-113.5 2.532-4.138.154-7.65 3.671-7.828 7.841-3.133 73.723-4.13 147.446-2.991 221.168 51.596 10.755 103.075 21.518 154.32 31.768 0-77.558 0-155.117 0-232.675-.027-16.91-13.53-30.765-30.001-30.634z" fill="url(#SVGID_10_)"/><path d="m286.543 346.652c-16.814.067-30.56 13.898-30.543 30.811 50.969 0 101.938-.687 152.908-2.062.315-10.076.59-20.152.826-30.228-41.064.822-82.127 1.315-123.191 1.479z" fill="url(#SVGID_11_)"/><path d="m225.34 315.922c-41.22-.108-82.44-.434-123.66-.978.156 10.076.351 20.152.586 30.228 51.48 11.103 102.764 22.04 153.734 32.29 0-10.25 0-20.5 0-30.75.012-16.912-13.788-30.746-30.66-30.79z" fill="url(#SVGID_12_)"/><path d="m225.457 346.652c-41.064-.163-82.127-.656-123.191-1.479.235 10.076.51 20.152.826 30.228 50.969 1.375 101.938 2.062 152.908 2.062.016-16.914-13.73-30.745-30.543-30.811z" fill="url(#SVGID_13_)"/><path d="m399.5 85.935c-37.833-1.396-75.667-2.24-113.5-2.532-16.472-.131-29.975 13.724-30 30.634-20.162 36.217-40.842 72.56-61.444 108.739 20.343 41.171 41.082 82.594 61.444 123.936-.012-16.913 13.788-30.747 30.66-30.79.341-.001.682-.002 1.022-.003 8.466-.023 16.144-3.492 21.723-9.067 5.578-5.576 9.052-13.254 9.077-21.721.046-15.332.056-30.665.029-45.997-.013-8.47 6.84-15.316 15.323-15.283 15.362.055 30.724.126 46.086.213 8.483.047 16.144-3.304 21.646-8.737 5.503-5.435 8.843-12.949 8.707-21.295-.542-33.419-1.523-66.837-2.944-100.256-.18-4.169-3.69-7.687-7.829-7.841z" fill="url(#SVGID_14_)"/><path d="m378.859 217.681c-17.624-3.36-35.24-6.725-52.844-10.076-14.136-2.702-26.443 9.627-23.791 23.771 3.308 17.598 6.587 35.186 9.816 52.759 1.869 10.161-.158 18.775-4.971 24.821.81-.658 1.592-1.367 2.331-2.106 5.579-5.577 9.053-13.255 9.08-21.718.046-15.332.056-30.665.029-45.997-.013-8.466 6.845-15.316 15.323-15.283 15.362.055 30.724.126 46.086.213 8.48.047 16.14-3.307 21.643-8.74.729-.721 1.428-1.481 2.074-2.273-5.975 4.666-14.585 6.572-24.776 4.629z" fill="url(#SVGID_15_)"/></g></svg>