<svg id="Capa_1" enable-background="new 0 0 512 512" height="512" viewBox="0 0 512 512" width="512" xmlns="http://www.w3.org/2000/svg" xmlns:xlink="http://www.w3.org/1999/xlink"><linearGradient id="SVGID_1_" gradientUnits="userSpaceOnUse" x1="0" x2="512" y1="271" y2="271"><stop offset="0" stop-color="#fd5900"/><stop offset="1" stop-color="#ffde00"/></linearGradient><linearGradient id="SVGID_2_" gradientUnits="userSpaceOnUse" x1="61" x2="451" y1="211.002" y2="211.002"><stop offset="0" stop-color="#ffe59a"/><stop offset="1" stop-color="#ffffd5"/></linearGradient><g><g id="Book_2_"><path d="m256 481c-19.57 0-36.24-12.539-42.422-30h-198.578c-8.291 0-15-6.709-15-15v-360c0-8.291 6.709-15 15-15h61c8.291 0 15 6.709 15 15v272.007c16.787-8.54 41.836-17.007 75-17.007 45.176 0 75.234 15.703 90 25.913 14.766-10.21 44.824-25.913 90-25.913 33.164 0 58.213 8.467 75 17.007v-272.007c0-8.291 6.709-15 15-15h61c8.291 0 15 6.709 15 15v360c0 8.291-6.709 15-15 15h-198.578c-6.182 17.461-22.852 30-42.422 30z" fill="url(#SVGID_1_)"/></g><g><path d="m425.395 386.605c-.997-.966-27.041-25.605-79.395-25.605s-78.398 24.639-79.482 25.693c-5.859 5.713-15.322 5.698-21.123-.088-.997-.966-27.041-25.605-79.395-25.605s-78.398 24.639-79.482 25.693c-4.307 4.189-10.723 5.435-16.318 3.076-5.567-2.343-9.2-7.748-9.2-13.769v-300c0-24.908 69.406-45 105-45 45.176 0 75.234 15.703 90 25.913 14.766-10.21 44.824-25.913 90-25.913 37.174 0 105 20.92 105 45v300c0 6.064-3.662 11.543-9.258 13.857-5.453 2.294-11.984 1.112-16.347-3.252z" fill="url(#SVGID_2_)"/></g></g></svg>